<?xml version="1.0" encoding="UTF-8"?>
<svg width="99px" height="98px" viewBox="0 0 99 98" version="1.1" xmlns="http://www.w3.org/2000/svg" xmlns:xlink="http://www.w3.org/1999/xlink">
    <!-- Generator: Sketch 44.1 (41455) - http://www.bohemiancoding.com/sketch -->
    <title>logo</title>
    <desc>Created with Sketch.</desc>
    <defs></defs>
    <g id="landing-page" stroke="none" stroke-width="1" fill="none" fill-rule="evenodd">
        <g id="Desktop-HD-R3-2" transform="translate(-132.000000, -461.000000)" fill="#AB4224">
            <g id="logo" transform="translate(132.000000, 461.000000)">
                <path d="M69.7999477,93.3504463 L69.7999477,77.9550399 C79.2496602,71.4062168 85.0919021,60.5238261 85.0919021,48.8638271 C85.0919021,31.9070163 72.853377,17.262404 56.3334355,14.0777165 L56.3334355,42.4057594 L42.8669233,42.4057594 L42.8669233,0.443788843 L44.2313534,0.291154856 C45.994776,0.105518927 47.805747,0.000325233645 49.6001794,0.000325233645 C51.3946118,0.000325233645 53.2055827,0.105518927 54.9690053,0.291154856 C79.8161055,3.01381515 98.5604816,23.8875441 98.5604816,48.8638271 C98.5604816,68.130774 87.1633552,85.5166101 69.7999477,93.3504463 Z" id="Fill-10"></path>
                <path d="M56.3340557,55.1836992 L56.3340557,97.269427 L54.9675582,97.422061 C53.2041356,97.6200727 51.395232,97.7128906 49.6007996,97.7128906 C47.8063672,97.7128906 45.9953962,97.6200727 44.2319736,97.422061 C19.3683349,94.6973381 0.623958745,73.8236091 0.623958745,48.8638271 C0.623958745,29.5803793 12.0355565,12.1966058 29.3989639,4.36070695 L29.3989639,19.7561134 C19.9513187,26.3069991 14.090471,37.1873271 14.090471,48.8638271 C14.090471,65.8206379 26.3476019,80.4652502 42.8654761,83.6334367 L42.8654761,55.1836992 L56.3340557,55.1836992 Z" id="Fill-11"></path>
            </g>
        </g>
    </g>
</svg>