<?xml version="1.0" encoding="UTF-8"?>
<svg width="180px" height="54px" viewBox="0 0 180 54" version="1.1" xmlns="http://www.w3.org/2000/svg" xmlns:xlink="http://www.w3.org/1999/xlink">
    <!-- Generator: Sketch 44.1 (41455) - http://www.bohemiancoding.com/sketch -->
    <title>logotype</title>
    <desc>Created with Sketch.</desc>
    <defs>
        <polygon id="path-1" points="0 0.1114 0 51.8994 24.5638 51.8994 24.5638 0.1114 1.35525272e-20 0.1114"></polygon>
        <polygon id="path-3" points="0 54.0008 179.939 54.0008 179.939 -0.0002 0 -0.0002"></polygon>
    </defs>
    <g id="landing-page" stroke="none" stroke-width="1" fill="none" fill-rule="evenodd">
        <g id="Desktop-HD-R3-1" transform="translate(-515.000000, -1886.000000)">
            <g id="location" transform="translate(-36.000000, 1480.000000)">
                <g id="location-title" transform="translate(551.000000, 380.000000)">
                    <g id="logotype" transform="translate(0.000000, 26.000000)">
                        <g id="Page-1">
                            <g id="Group-3" transform="translate(0.000000, 1.000800)">
                                <mask id="mask-2" fill="white">
                                    <use xlink:href="#path-1"></use>
                                </mask>
                                <g id="Clip-2"></g>
                                <path d="M16.3518,8.9954 C16.3518,6.4504 14.9578,5.2024 12.2468,5.2024 C9.5328,5.2024 8.1398,6.4504 8.1398,8.9954 L8.1398,43.0164 C8.1398,45.5614 9.5328,46.8594 12.2468,46.8594 C14.9578,46.8594 16.3518,45.5614 16.3518,43.0164 L16.3518,8.9954 Z M12.5388,0.1114 C19.7978,0.1114 24.5638,3.5934 24.5638,9.5154 L24.5638,41.8734 C24.5638,48.3664 20.0178,51.8994 12.2468,51.8994 C4.3268,51.8994 -0.0002,48.4184 -0.0002,41.7184 L-0.0002,9.3584 C-0.0002,3.6434 4.6198,0.1114 12.5388,0.1114 L12.5388,0.1114 Z" id="Fill-1" fill="#FFFFFF" mask="url(#mask-2)"></path>
                            </g>
                            <path d="M45.6086,23.6251 L48.7616,23.6251 C52.6476,23.6251 53.6746,21.4981 53.6746,15.7731 C53.6746,10.2711 52.3556,8.5841 48.4686,8.5841 L45.6086,8.5841 L45.6086,23.6251 Z M45.6086,52.9001 L37.6156,52.9001 L37.6156,1.1001 L49.3486,1.1001 C58.0006,1.1001 61.8136,5.4301 61.8136,16.0661 C61.8136,22.2291 60.4946,26.1921 56.7546,28.8341 L62.6206,52.9001 L54.3346,52.9001 L49.4216,31.1071 L45.6086,31.1071 L45.6086,52.9001 Z" id="Fill-4" fill="#FFFFFF"></path>
                            <mask id="mask-4" fill="white">
                                <use xlink:href="#path-3"></use>
                            </mask>
                            <g id="Clip-7"></g>
                            <polygon id="Fill-6" fill="#FFFFFF" mask="url(#mask-4)" points="74.132 52.8998 82.271 52.8998 82.271 1.1008 74.132 1.1008"></polygon>
                            <path d="M95.176,13.0597 C95.176,4.9897 99.795,-0.0003 107.714,-0.0003 C115.193,-0.0003 119.227,4.4747 119.227,13.2797 L119.227,18.0487 L111.528,18.0487 L111.528,12.5447 C111.528,8.9527 110.134,7.1897 107.421,7.1897 C104.708,7.1897 103.316,8.9527 103.316,12.5447 L103.316,41.4547 C103.316,45.0487 104.708,46.8817 107.421,46.8817 C110.134,46.8817 111.528,45.0487 111.528,41.4547 L111.528,33.3827 L106.689,33.3827 L106.689,26.7807 L119.227,26.7807 L119.227,52.8997 L115.414,52.8997 L113.875,49.3037 C112.114,52.5327 109.695,54.0007 106.175,54.0007 C99.062,54.0007 95.176,49.0107 95.176,39.6207 L95.176,13.0597 Z" id="Fill-8" fill="#FFFFFF" mask="url(#mask-4)"></path>
                            <polygon id="Fill-9" fill="#FFFFFF" mask="url(#mask-4)" points="132.498 52.8998 140.637 52.8998 140.637 1.1008 132.498 1.1008"></polygon>
                            <polygon id="Fill-10" fill="#FFFFFF" mask="url(#mask-4)" points="154.4949 1.0997 161.6809 1.0997 172.5129 32.3667 172.4599 1.0997 179.9389 1.0997 179.9389 52.8997 172.4599 52.8997 161.8829 26.3957 161.8999 52.8997 154.4949 52.8997"></polygon>
                        </g>
                    </g>
                </g>
            </g>
        </g>
    </g>
</svg>